<svg width="14" height="12" viewBox="0 0 14 12" fill="none" xmlns="http://www.w3.org/2000/svg">
<path fill-rule="evenodd" clip-rule="evenodd" d="M10.8592 3.01628H12.4425C13.1682 3.01628 13.7619 3.62174 13.7619 4.36176V10.4164C13.7619 11.1565 13.1682 11.7619 12.4425 11.7619H1.88695C1.16125 11.7619 0.567505 11.1565 0.567505 10.4164V4.36176C0.567505 3.62174 1.16125 3.01628 1.88695 3.01628H3.47028C3.68799 3.01628 3.92232 2.84405 3.99133 2.63349L4.40062 1.38097C4.46937 1.17027 4.70396 0.998047 4.92167 0.998047H9.40778C9.62549 0.998047 9.85982 1.17027 9.92883 1.38084L10.3381 2.63335C10.4069 2.84405 10.6415 3.01628 10.8592 3.01628ZM5.18556 7.05273C5.18556 5.9384 6.07157 5.03451 7.16473 5.03451C8.25762 5.03451 9.14389 5.9384 9.14389 7.05273C9.14389 8.16747 8.25762 9.07096 7.16473 9.07096C6.07157 9.07096 5.18556 8.16747 5.18556 7.05273ZM7.16473 10.4164C5.34297 10.4164 3.86612 8.91045 3.86612 7.05273C3.86612 5.19516 5.34297 3.68902 7.16473 3.68902C8.98622 3.68902 10.4633 5.19516 10.4633 7.05273C10.4633 8.91045 8.98622 10.4164 7.16473 10.4164ZM11.5189 4.83174C11.5189 5.09196 11.7258 5.30266 11.9807 5.30266C12.2357 5.30266 12.4425 5.09196 12.4425 4.83174C12.4425 4.57179 12.2359 4.36082 11.9807 4.36082C11.7258 4.36082 11.5189 4.57179 11.5189 4.83174Z" fill="white"/>
</svg>
