<svg width="24" height="20" viewBox="0 0 24 20" fill="none" xmlns="http://www.w3.org/2000/svg">
<path d="M11.4053 6.33159L14.7211 9.64738L14.7369 9.47369C14.7369 7.73157 13.3211 6.3158 11.579 6.3158L11.4053 6.33159Z" fill="#A4A9AF" fill-opacity="0.78"/>
<path d="M11.5788 4.21051C14.4841 4.21051 16.842 6.56843 16.842 9.47369C16.842 10.1526 16.7052 10.8 16.4683 11.3947L19.5473 14.4737C21.1367 13.1474 22.3894 11.4316 23.1631 9.47369C21.3368 4.85265 16.8473 1.57895 11.5789 1.57895C10.1052 1.57895 8.69468 1.84209 7.38416 2.31578L9.65784 4.58418C10.2525 4.35262 10.8999 4.21051 11.5788 4.21051Z" fill="#A4A9AF" fill-opacity="0.78"/>
<path d="M1.05262 1.34211L3.45262 3.74211L3.93158 4.22107C2.19474 5.57897 0.821053 7.38425 0 9.47369C1.82107 14.0947 6.3158 17.3684 11.579 17.3684C13.2106 17.3684 14.7684 17.0526 16.1948 16.4789L16.6422 16.9263L19.7106 20L21.0527 18.6632L2.39472 0L1.05262 1.34211ZM6.87371 7.15792L8.50002 8.78424C8.45265 9.01057 8.42108 9.23685 8.42108 9.47369C8.42108 11.2158 9.83685 12.6316 11.579 12.6316C11.8158 12.6316 12.0421 12.6 12.2632 12.5526L13.8895 14.179C13.1895 14.5263 12.4106 14.7369 11.579 14.7369C8.67371 14.7369 6.31579 12.379 6.31579 9.47369C6.31579 8.64213 6.52634 7.86316 6.87371 7.15792Z" fill="#A4A9AF" fill-opacity="0.78"/>
</svg>
