<svg width="64" height="11" viewBox="0 0 64 11" fill="none" xmlns="http://www.w3.org/2000/svg">
<path fill-rule="evenodd" clip-rule="evenodd" d="M5.84098 0.573975L7.07763 3.64598L10.2436 3.93145C10.4632 3.95135 10.5525 4.23891 10.3859 4.39029L7.98441 6.57395L8.70404 9.82248C8.75395 10.0482 8.52089 10.2258 8.33225 10.1058L5.61141 8.38364L2.89058 10.1058C2.70144 10.2253 2.46888 10.0477 2.51878 9.82248L3.23842 6.57395L0.836477 4.38976C0.669793 4.23839 0.758624 3.95083 0.978707 3.93092L4.1447 3.64546L5.38135 0.573975C5.46719 0.36027 5.75514 0.36027 5.84098 0.573975Z" fill="#F5A623"/>
<path fill-rule="evenodd" clip-rule="evenodd" d="M19.0354 0.573975L20.2721 3.64598L23.4381 3.93145C23.6577 3.95135 23.747 4.23891 23.5803 4.39029L21.1789 6.57395L21.8985 9.82248C21.9484 10.0482 21.7154 10.2258 21.5267 10.1058L18.8059 8.38364L16.085 10.1058C15.8959 10.2253 15.6633 10.0477 15.7132 9.82248L16.4329 6.57395L14.0309 4.38976C13.8643 4.23839 13.9531 3.95083 14.1732 3.93092L17.3392 3.64546L18.5758 0.573975C18.6616 0.36027 18.9496 0.36027 19.0354 0.573975Z" fill="#F5A623"/>
<path fill-rule="evenodd" clip-rule="evenodd" d="M32.5771 0.573975L33.8138 3.64598L36.9797 3.93145C37.1993 3.95135 37.2887 4.23891 37.122 4.39029L34.7205 6.57395L35.4402 9.82248C35.4901 10.0482 35.257 10.2258 35.0684 10.1058L32.3475 8.38364L29.6267 10.1058C29.4376 10.2253 29.205 10.0477 29.2549 9.82248L29.9745 6.57395L27.5726 4.38976C27.4059 4.23839 27.4947 3.95083 27.7148 3.93092L30.8808 3.64546L32.1175 0.573975C32.2033 0.36027 32.4913 0.36027 32.5771 0.573975Z" fill="#F5A623"/>
<path fill-rule="evenodd" clip-rule="evenodd" d="M45.7715 0.573975L47.0082 3.64598L50.1742 3.93145C50.3938 3.95135 50.4831 4.23891 50.3164 4.39029L47.915 6.57395L48.6346 9.82248C48.6845 10.0482 48.4514 10.2258 48.2628 10.1058L45.542 8.38364L42.8211 10.1058C42.632 10.2253 42.3994 10.0477 42.4493 9.82248L43.169 6.57395L40.767 4.38976C40.6003 4.23839 40.6892 3.95083 40.9092 3.93092L44.0752 3.64546L45.3119 0.573975C45.3977 0.36027 45.6857 0.36027 45.7715 0.573975Z" fill="#F5A623"/>
<path fill-rule="evenodd" clip-rule="evenodd" d="M59.3132 0.573975L60.5499 3.64598L63.7159 3.93145C63.9355 3.95135 64.0248 4.23891 63.8581 4.39029L61.4567 6.57395L62.1763 9.82248C62.2262 10.0482 61.9931 10.2258 61.8045 10.1058L59.0837 8.38364L56.3628 10.1058C56.1737 10.2253 55.9411 10.0477 55.991 9.82248L56.7107 6.57395L54.3087 4.38976C54.142 4.23839 54.2309 3.95083 54.4509 3.93092L57.6169 3.64546L58.8536 0.573975C58.9394 0.36027 59.2274 0.36027 59.3132 0.573975Z" fill="#D3D8E5"/>
</svg>
